<?xml version="1.0" encoding="UTF-8" standalone="no"?>
<!-- Created with Inkscape (http://www.inkscape.org/) -->

<svg
   width="86.79847mm"
   height="133.61267mm"
   viewBox="0 0 86.79847 133.61267"
   version="1.1"
   id="svg1"
   xmlns="http://www.w3.org/2000/svg"
   xmlns:svg="http://www.w3.org/2000/svg">
  <defs
     id="defs1" />
  <g
     id="layer1"
     transform="translate(-55.545248,-71.284805)">
    <path
       id="path14"
       style="fill:#ecbf2f;fill-opacity:1;stroke:#cecece;stroke-width:0;stroke-dasharray:none;stroke-opacity:1"
       d="M 82.94692,88.53822 A 43.386546,43.386546 0 0 0 55.637829,131.2872 l -0.09258,-0.0455 2.587982,37.86334 2.267491,33.17004 30.907408,-62.72039 a 13.051237,13.051237 0 0 1 -4.41629,-5.71206 13.051237,13.051237 0 0 1 7.31434,-16.94594 13.051237,13.051237 0 0 1 16.94576,7.31386 13.051237,13.051237 0 0 1 -7.31367,16.94624 13.051237,13.051237 0 0 1 -8.77747,0.30571 l -31.259213,63.43497 28.415933,-19.1023 31.49631,-21.17321 -0.10907,-0.0534 A 43.386546,43.386546 0 0 0 139.28157,112.8525 43.386546,43.386546 0 0 0 82.94692,88.53822 Z" />
    <path
       id="path19"
       style="fill:#ecbf2f;fill-opacity:1;stroke:#000000;stroke-width:0;stroke-dasharray:none;stroke-opacity:1"
       d="m 113.97149,71.28577 a 24.887262,20.948479 20.089947 0 0 -20.17758,12.25714 43.386546,43.386546 0 0 1 44.77298,21.21575 24.887262,20.948479 20.089947 0 0 1.7234,-3.4742 24.887262,20.948479 20.089947 0 0 -16.1773,-28.22257 24.887262,20.948479 20.089947 0 0 -10.1415,-1.77612 z" />
  </g>
</svg>
